<svg width="108" height="98" viewBox="0 0 108 98" fill="none" xmlns="http://www.w3.org/2000/svg">
<path fill-rule="evenodd" clip-rule="evenodd" d="M96.0137 1.189C90.2537 2.475 79.7947 12.816 66.3677 30.5C53.7247 47.152 48.9057 53 47.8277 53C47.3527 53 46.0257 49.85 44.8787 46C42.5627 38.225 41.5857 37.662 36.1557 40.973C31.9787 43.519 31.3917 46.243 32.8577 56.267C34.5207 67.643 35.8797 70.515 40.2877 71.97C47.0657 74.207 49.0837 72.358 74.6597 40.5C87.4637 24.55 99.9807 8.912 102.476 5.75L107.012 0L103.695 0.107C101.871 0.166 98.4147 0.653 96.0137 1.189ZM27.7517 14.938C18.1057 16.819 9.05373 23.735 4.50273 32.7C-1.62627 44.775 -1.47427 68.548 4.81173 80.869C7.63573 86.404 13.5887 91.953 19.8787 94.912C24.8787 97.265 26.5157 97.5 37.8787 97.5C47.7807 97.5 51.3657 97.108 55.1287 95.614L59.8787 93.728V86.461V79.193L53.1287 81.576C45.3877 84.308 34.7157 84.794 29.5807 82.649C25.2057 80.821 20.2387 74.948 18.6847 69.763C17.9817 67.418 17.4187 61 17.4347 55.5C17.4587 46.891 17.8227 44.72 20.0497 39.893C21.6367 36.454 24.1037 33.167 26.4287 31.393C29.9307 28.722 30.8787 28.5 38.7997 28.5C43.5187 28.5 48.7887 28.862 50.5117 29.304C53.4977 30.07 53.8377 29.835 57.7737 24.304L61.9037 18.5L58.7857 17.204C51.6417 14.235 36.8797 13.157 27.7517 14.938Z" fill="#FAFAFA"/>
</svg>
