<svg width="187" height="120" viewBox="0 0 187 120" fill="none" xmlns="http://www.w3.org/2000/svg">
<path fill-rule="evenodd" clip-rule="evenodd" d="M86.8433 2.32463C79.5843 6.92063 5.05827 67.4956 2.97727 70.4926C0.691273 73.7826 0.587273 74.7116 0.291273 94.3666C-0.0107269 114.36 0.0322731 114.87 2.21527 117.194L4.44827 119.57H93.0993H181.75L183.925 117.256C186.006 115.04 186.099 114.094 186.099 95.1566C186.099 79.0726 185.799 74.7396 184.495 71.9926C183.341 69.5596 171.885 59.7926 143.64 37.1586C122.051 19.8596 102.685 4.54963 100.604 3.13763C96.1383 0.106628 90.8413 -0.206372 86.8433 2.32463ZM25.6703 8.14063C24.3593 9.45263 24.0993 12.6756 24.0993 27.6406C24.0993 37.5016 24.4363 45.5476 24.8493 45.5216C25.2623 45.4946 32.1243 40.1706 40.0993 33.6896L54.5993 21.9046L54.8993 15.6496C55.0793 11.9006 54.7293 8.82863 54.0273 7.98263C52.2343 5.82263 27.8533 5.95863 25.6703 8.14063ZM143.192 55.6826C158.266 67.7606 172.174 79.2086 174.099 81.1206L177.599 84.5976L177.937 96.1576C178.226 106.054 178.024 107.996 176.532 109.644C174.847 111.506 172.713 111.57 111.967 111.57H49.1453L47.5303 109.105C45.0003 105.244 45.8243 86.7506 48.6983 82.8896C51.5933 79.0006 108.124 33.7476 110.599 33.3376C111.699 33.1556 113.316 33.1666 114.192 33.3636C115.068 33.5596 128.118 43.6036 143.192 55.6826ZM122.66 55.7556C118.649 58.0826 81.2243 88.5526 79.6953 90.7356C77.6683 93.6296 77.5083 103.835 79.4643 105.458C80.4473 106.273 93.6663 106.518 126.714 106.33L172.599 106.07L172.895 99.3046C173.091 94.8146 172.737 91.8906 171.841 90.6126C169.616 87.4346 127.983 54.5676 126.225 54.5996C125.331 54.6166 123.726 55.1366 122.66 55.7556Z" fill="#034DA2"/>
</svg>
